<svg xmlns="http://www.w3.org/2000/svg" viewBox="0 0 1080 4979.53"><defs><style>.cls-4{font-size:20px;font-family:AppleSDGothicNeo-Medium-KSCpc-EUC-H,Apple SD Gothic Neo;letter-spacing:1.54em}.cls-6{letter-spacing:.03em}.cls-11,.cls-8{letter-spacing:-.01em}.cls-12,.cls-13{letter-spacing:.01em}.cls-14{letter-spacing:0}.cls-15{letter-spacing:-.02em}.cls-16{letter-spacing:-.01em}</style></defs><g id="Layer_2" data-name="Layer 2"><g id="레이어_1" data-name="레이어 1"><text transform="translate(66.61 85.81)" font-size="24" font-family="AppleSDGothicNeo-Bold-KSCpc-EUC-H,Apple SD Gothic Neo">개인정보처리방침<tspan x="166.08" y="0" letter-spacing=".55em" font-size="20" font-family="AppleSDGothicNeo-Medium-KSCpc-EUC-H,Apple SD Gothic Neo"> </tspan><tspan x="182.25" y="0" letter-spacing="1.56em" font-size="20" font-family="AppleSDGothicNeo-Medium-KSCpc-EUC-H,Apple SD Gothic Neo"> </tspan><tspan class="cls-4"><tspan x="0" y="24"> </tspan></tspan><tspan font-size="20" font-family="AppleSDGothicNeo-Medium-KSCpc-EUC-H,Apple SD Gothic Neo"><tspan x="0" y="48">주식회사 스월브 (이하 &quot;회사&quot;)는 고객의 개인정보를 중요시하며, 개인정보의 보호와 관련하여 「정보통신망 이용촉진 및 </tspan><tspan x="0" y="72">정보보보호 등에 관한 법률」 및 「 개인정보 보호법 」 등 관련법 상의 개인정보 보호 규정을 준수하고 있으며, 회사는 고객이 </tspan><tspan x="0" y="96">회사의 개인정보 처리방침의 내용에 대하여</tspan><tspan x="0" y="120">「 동의 」 버튼 또는 「 취소 」 버튼을 클릭할 수 있는 절차를 마련하여, 「 동의 」 버튼을 클릭하면 개인정보 수집 및 이용 등 </tspan><tspan x="0" y="144">아래 개인정보 처리방침에 대해 동의한 것으로 봅니다.</tspan><tspan x="0" y="192">1. 개인정보의 수집 및 이용목적</tspan><tspan x="0" y="240"> 회사는 수집한 개인정보를 다음의 목적을 위해 활용합니다.</tspan><tspan x="0" y="288"> ① 회원권 상품 판매 및 중개 서비스의 이행 및 서비스 제공에 따른 요금정산 - 단일회원권 및 통합회원권 서비스 제공, </tspan><tspan x="0" y="312">구매 및 요금 결제, 금융거래 본인 인증 및 금융서비스, 요금추심 등</tspan><tspan x="0" y="360"> ② 고객관리 - 고객관리 및 이용에 따른 본인확인, 개인식별, 불량회원의 부정 이용 방지와 비인가 사용 방지, 가입/탈퇴 </tspan><tspan x="0" y="384">의사 확인, 연령확인, 만 14세 미만 아동 개인정보 수집시 법정 대리인 동의여부 확인, 불만처리 및 민원처리, 고지사항 전달 </tspan><tspan x="0" y="408">등</tspan><tspan x="0" y="456"> ③ 제휴시설 정보제공 - 제휴시설 이용시 본인확인, 개인식별, 불량 또는 부적법한 이용자에 대한 중개 서비스 제공 방지와 </tspan><tspan x="0" y="480">사용 방지 등</tspan><tspan x="0" y="528"> ④ 기타 - 본인 의사 확인 등 원활한 의사소통 경로의 확보, 새로운 서비스/신상품이나 이벤트 정보 안내</tspan><tspan x="0" y="600">2. 개인 정보 수집 항목</tspan><tspan x="0" y="624"> </tspan><tspan x="0" y="648"> 회사가 서비스 제공을 위해 제공바든 수집한 최소한의 개인 정보 항목과 목적은 다음과 같으며, 회사는 고객의 회원가입시 </tspan><tspan x="0" y="672">고객 스스로의 정보 입력 또는 가상계좌번호, 로그(Lo</tspan><tspan class="cls-6" x="409.23" y="672">g</tspan><tspan x="419.85" y="672">), 쿠키(Cookie) 등 자동으로 생성되는 정보를 서버(Se</tspan><tspan x="834.51" y="672" letter-spacing=".01em">r</tspan><tspan x="841.51" y="672">ver)에 </tspan><tspan x="0" y="696">저장하는 방법으로</tspan><tspan x="0" y="720"> 정보를 수집합니다.</tspan><tspan x="0" y="768"> ① 회원가입 및 관리 : 이메일, 비밀번호, 이름, 전화번호, 성별, 신체정보</tspan><tspan x="0" y="816"> ② 재화 또는 서비스 제공 : 성명, 주소, 성별, 신용카드번호, 은행계좌번호 등 결제정보</tspan><tspan x="0" y="864"> ③ 서비스 이용과정에서 아래 개인정보 항목이 자동으로 생성되어 수집될 수 있습니다.</tspan><tspan x="0" y="888"> - IP주소(IP Address), 쿠키(Cookie), 로그(Lo</tspan><tspan class="cls-6" x="382.31" y="888">g</tspan><tspan x="392.93" y="888">) 기록, 가상계좌번호, 기기고유번호, 서비스 이용기록, 방문 기록, </tspan><tspan x="0" y="912">불량이용기록 등</tspan><tspan x="0" y="984">3. 개인정보의 이용 및 보유기간</tspan><tspan x="0" y="1008"> </tspan><tspan x="0" y="1032"> 고객의 동의 하에 수집된 개인정보는 회사가 고객에게 서비스를 제공하는 기간에 한하여 보유 또는 이용되며, 고객이 </tspan><tspan x="0" y="1056">해지를 요청하는 경우에는 아래 &apos;개인정보의 파기절차 및 방법&apos;에 따라 파기됩니다. 다만, 회사는 고객의 개별 동의를 받은 </tspan><tspan x="0" y="1080">경우,</tspan><tspan x="0" y="1104"> 고객이 요금을 미납한 경우, 개인정보 도용 등으로 인한 고객 피해발생시 피해자 보호, 소비자의 불만 및 분쟁 처리 등 </tspan><tspan x="0" y="1128">관계법령의 규정에 따라 보존의 필요성이 있는 경우에는 아래와 같은 개인정보에 대하여 명시한 기간 동안 보존하는 것으로 </tspan><tspan x="0" y="1152">합니다.</tspan><tspan x="0" y="1200"> ① 회사와 고객간 민원, 소송 등 분쟁 과정 중 법률로 정한 보유기간이 경과한 경우</tspan><tspan x="0" y="1224"> - 분쟁 해결시까지 보존</tspan><tspan x="0" y="1272"> ② 회사가 개별적으로 고객의 동의를 받은 경우</tspan><tspan x="0" y="1296"> - 해당 동의 받은 기간까지 보존</tspan><tspan x="0" y="1344"> ③ 관련 법령에 의한 개인정보 보유 기간</tspan><tspan x="0" y="1368"> - 회원 가입 및 관리 기록 : 1년</tspan><tspan x="0" y="1392"> - 계약 또는 청약철회 등에 관한 기록 : 5년, 다만 회사와 &quot;제휴시설&quot;과의 계약을 위해 &quot;제휴시설&quot;이 제공하는 </tspan><tspan x="0" y="1416">신원정보는 &quot;제휴시설&quot;의 업무가 종료된 때로부터 5년까지</tspan><tspan x="0" y="1440"> - 대금결제 및 재화 등의 공급에 관한 기록 : 5년</tspan><tspan x="0" y="1464"> - 소비자의 불만 또는 분쟁처리에 관한 기록 : 3년</tspan><tspan x="0" y="1488"> - 표시/광고에 관한 기록 : 6개월</tspan><tspan x="0" y="1560">4. 개인정보 처리 및 제공</tspan><tspan x="0" y="1608"> ① 회사는 고객의 개인정보를 회원 가입 및 이용약관 및 제1조 개인정보의 수집 및 이용목적에서 고지한 범위 또는 회원 </tspan><tspan x="0" y="1632">가입시 동의한 범위 및 이용약관에 명시한 범위 내에서 처리하며, 동 범위를 넘어 처리하거나 제3자에게 제공하지 </tspan><tspan x="0" y="1656">않습니다.</tspan><tspan x="0" y="1704"> ② 회사는 고객에 대하여 보다 더 질 높은 서비스 제공 등을 위해 아래와 같이 제휴사에게 개인정보를 제공하고 있습니다. </tspan><tspan x="0" y="1728">회사는 고객님의 개인정보를 회사의 서비스과 무관한 타 기업, 기관에 공개하지 않습니다. 단, 고객님의 개인정보를 </tspan><tspan x="0" y="1752"> 제공하는 경우 다음과 같으며, 고객이 아래 제공을 거부하였을 경우 서비스 제공에 어려움이 있을 수 있습니다.</tspan><tspan x="0" y="1776"> </tspan><tspan x="0" y="1800"> - 회원이 서비스를 이용하고자 결제한 각 제휴시설</tspan><tspan x="0" y="1824"> - 제공 항목 : 성명, 주소, 연락처, 성별, 운동의 목적</tspan><tspan x="0" y="1848"> - 이용 목적 : 제휴시설 이용 및 회원관리 목적</tspan><tspan x="0" y="1872"> - 제공 기간 : 목적에 따른 개인정보 제공시부터 제공 목적 달성시까지</tspan><tspan x="0" y="1920"> ③ 회사는 보다 나은 서비스 제공을 위하여 제2항 외에도 고객의 개인정보를 제휴사에게 제공할 수 있으며, 이에 따라 </tspan><tspan x="0" y="1944">개인정보를 제공할 경우 회사는 가전에 고객에게 제휴사가 누구인지, 제공되는</tspan><tspan x="0" y="1968"> 개인정보항목이 무엇인지, 왜 그러한 개인정보가 제공되어야 하는지, 그리고 언제까지 어떻게 보호 관리되는지에 대해 </tspan><tspan x="0" y="1992">개별적으로 서면 또는 전자우편 등을 통해 고지하여 동의를 구하는 절차를 거치게 되며</tspan><tspan x="0" y="2016"> 곡객께서 동의하지 않는 경우에는 제휴사에게 제공하지 않습니다. 제휴관계에 변화가 있거나 제휴관계가 종결될 때도 </tspan><tspan x="0" y="2040">같은 절차에 의하여 고지하거나 동의를 구합니다.</tspan><tspan x="0" y="2088"> ④ 회사는 기타 아래의 경우에도 고객의 개인정보를 제3자에게 제공할 수 있습니다.</tspan><tspan x="0" y="2136"> - 관계법령에 의하여 수사상의 목적으로 관계기관으로부터의 요구가 있을 경우</tspan><tspan x="0" y="2160"> - 통계작성학술연구나 시장조사를 위하여 특정 개인을 식별할 수 없는 형태로 광고주 협력사나 연구단체 등에 제공하는 </tspan><tspan x="0" y="2184">경우</tspan><tspan x="0" y="2208"> - 기타 관계법령에서 정한 절차에 따른 요청이 있는 경우</tspan><tspan x="0" y="2232"> </tspan><tspan x="0" y="2256"> ⑤ 관계법령에 의하거나 수사기관의 요청에 의해 정보를 제공한 경우에도 이를 이용자에게 고지하는 것을 원칙으로 </tspan><tspan x="0" y="2280">운영하고 있습니다. 법률상의 근거에 의해 부득이하게 고지를 하지 못할 수도 있습니다.</tspan><tspan x="0" y="2304"> 본래의 수집 및 이용 목적에 반하여 무분별하게 정보가 제공되지 않도록 최대한 노력하겠습니다.</tspan><tspan x="0" y="2352"> ⑥ 회사는 새로운 기술개발이나 보다 나은 서비스의 제공을 위하여 이용자들의 개인정보를 제공할 수 있습니다. 이 </tspan><tspan x="0" y="2376">경우에도 정보제공 이전에 개인정보를 제공할 기관이나 단체가 누구인지, 어떤 정보가 왜 필요한지</tspan><tspan x="0" y="2400"> 그리고 언제까지 어떻게 보호되고 관리되는지 알려드리고 동의를 구하는 절차를 거치게 되며, 이용자들의 동의가 없는 </tspan><tspan x="0" y="2424">경우에는 추가적인 정보를 임의로 수집하거나 제공하지 않습니다.</tspan><tspan x="0" y="2496">5. 고객의 권리와 그 행사방법</tspan><tspan x="0" y="2544"> ① 고객은 회사에 대해 언제든지 다음 각 호의 개인정보 보호 관련 권리를 행사할 수 있으며, 고객이 만 14세 미만의 </tspan><tspan x="0" y="2568">아동인 경우 그 아동의 법정대리인은 아동의 개인 정보에 대한 열람, 정정, 삭제</tspan><tspan x="0" y="2592"> 및 처리정지를 요청할 수 있습니다.</tspan><tspan x="0" y="2640"> - 개인정보 열람요구</tspan><tspan x="0" y="2664"> - 오류 등이 있을경우 정정 요구</tspan><tspan x="0" y="2688"> - 삭제요구</tspan><tspan x="0" y="2712"> - 처리정지 요구</tspan><tspan x="0" y="2760"> ② 고객이 개인정보의 삭제를 요청한 경우 제3조의 개인정보의 처리 및 보유기간과 제7조의 개인정보의 파기절차 및 </tspan><tspan x="0" y="2784">파기방법에 명시된 바에 따릅니다.</tspan><tspan x="0" y="2856">6. 개인정보의 취급위탁</tspan><tspan x="0" y="2904"> ① 회사는 원활한 개인정보 업무처리를 위하여 개인정보 처리업무 중 일부를 다음과 같이 외부에 위탁할 수 있으며, 관계 </tspan><tspan x="0" y="2928">법령에 따라 위탁계약시 개인정보가 안전하게 관리될 수 있도록 합니다.</tspan><tspan x="0" y="2976"> ② 회사는 위탁계약 체결시 「 개인정보 보호법 」 제</tspan><tspan class="cls-8" x="394.49" y="2976">2</tspan><tspan x="404.95" y="2976">6조에 따라 위탁업무 목적 및 범위, 위탁업무 수행목적 외 개인정보 </tspan><tspan x="0" y="3000">처리금지, 재위탁 제한, 수탁자에 대한 관리 감독, 안정성 확보 조치 및 책임에 관한 사항을 문서에 명시하고,</tspan><tspan x="0" y="3024"> 수탁자가 개인정보를 안저하게 처리하는지를 감독합니다.</tspan><tspan x="0" y="3096">7. 개인정보의 보호조치</tspan><tspan x="0" y="3144"> 회사는 개인정보의 안정성 확보를 위해 다음과 같은 조치를 취하고 있습니다.</tspan><tspan x="0" y="3192"> - 관리적 조치 : 개인정보 보호책임자의 지정 등 개인정보보호 조직의 구성 및 운영에 관한 사항, 개인정보취급자의 교육에 </tspan><tspan x="0" y="3216">관한 사항을 포함하는 내부관리계획의 수립 및 시행</tspan><tspan x="0" y="3240"> - 기술적 조치 : 개인정보를 처리할 수 있도록 체계적으로 구성한 데이터베이스시스템에 대한 접근권한의 부여, 변경 및 </tspan><tspan x="0" y="3264">말소 등에 관한 기준의 수립 및 시행, 개인정보처리시스템에 대한 침입차단시스템 및 침입탐지시스템의</tspan><tspan x="0" y="3288"> 설치 및 운영, 비밀번호의 생성 방법 및 변경 주기 등의 기준 서정과 운영, 개인정보취급자가 개인정보처리 </tspan><tspan x="0" y="3312">시스템에 접속하여 개인정보를 처리한 경우 접속 일시, 처리내역 등의 저장 및 이의 확인 및 감독,</tspan><tspan x="0" y="3336"> 개인정보 처리시스템에 대한 접속기록을 별도 저장장치에 백업 보관, 비밀번호의 일방향 암호화 저장, </tspan><tspan x="0" y="3360">계좌정보 등 금융정보의 암호화 저장, 정보통신망을 통하여 이용자의 개인정보 및 인증정보를 송신</tspan><tspan x="0" y="3384"> 및 수신하는 경우 보안서버 구축 등의 조치, 개인정보처리시스템 및 개인정보취급자가 개인정보 처리에 </tspan><tspan x="0" y="3408">이용하는 정보기기에 컴퓨터바이러스, 스파이웨어 등 악성프로그램의 침투 여부를 항시 점검 및</tspan><tspan x="0" y="3432"> 치료할 수 있도록 백신소프트웨어 설치 및 주기적 갱신 및 점검</tspan><tspan x="0" y="3504">8. 인터넷 접속정보파일</tspan><tspan x="0" y="3552"> ① 회사는 웹사이트 운영에 있어 필요 시 회원의 정보를 찾아내고 저장하는 쿠키(Cookie)를 운용합니다. 쿠키는 </tspan><tspan x="0" y="3576">웹사이트를 운영하는데 이용되는 서버가 회원의 브라우저에 보내는 아주 작은 텍스트 파일로서</tspan><tspan x="0" y="3600"> 회원의 단말기(</tspan><tspan x="146.98" y="3600" letter-spacing=".01em">P</tspan><tspan x="158.28" y="3600">C, 스마트폰, 태블릿 </tspan><tspan x="316.11" y="3600" letter-spacing=".02em">P</tspan><tspan x="327.41" y="3600">C 등)의 하드디스크에 저장되며, 웹브라우저의 종료 시나 로그아웃(Logout)시 </tspan><tspan x="0" y="3624">만료됩니다.</tspan><tspan x="0" y="3648"> ② 회원은 회사의 보안 정책을 통해 쿠키(Cookie)에 의한 정보수집의 허용 거부 여부를 결정하실 수 있습니다.</tspan><tspan x="0" y="3720">9. 개인정보 보호 책임자 및 관리담당자 지정</tspan><tspan x="0" y="3768"> 회사는 개인정보 처리에 관한 업무를 총괄해서 책임지고, 개인정보 처리와 관련한 정보주체의 불만처리 및 피해구제를 </tspan><tspan x="0" y="3792">처리하기 위하여 아래와 같이 개인정보 보호책임자 및 관리담당자를 지정하고 있습니다.</tspan><tspan x="0" y="3840"> - 개인정보 보호책임자</tspan><tspan x="0" y="3864"> 성명 : 윤지현</tspan><tspan x="0" y="3888"> 부서 및 직책 : (주)스월브 대표이사</tspan><tspan x="0" y="3912"> 연락처 : </tspan><tspan class="cls-8" x="94.54" y="3912">0</tspan><tspan x="107" y="3912">10 - 95</tspan><tspan class="cls-11" x="167.48" y="3912">2</tspan><tspan x="178.04" y="3912">0 - </tspan><tspan class="cls-8" x="209.98" y="3912">39</tspan><tspan x="231.46" y="3912">19</tspan><tspan x="0" y="3936"> 이메일 : conta</tspan><tspan class="cls-12" x="140.74" y="3936">c</tspan><tspan x="149.78" y="3936">t@swe</tspan><tspan class="cls-13" x="206.76" y="3936">r</tspan><tspan x="213.76" y="3936">ve.kr</tspan><tspan x="0" y="3984"> - 개인정보 관리담당자</tspan><tspan x="0" y="4008"> 성명 : 이해일</tspan><tspan x="0" y="4032"> 부서 및 직책 : (주)스월브 개발팀장</tspan><tspan x="0" y="4056"> 연락처 : </tspan><tspan class="cls-8" x="94.54" y="4056">0</tspan><tspan x="107" y="4056">10 - 95</tspan><tspan class="cls-11" x="167.48" y="4056">2</tspan><tspan x="178.04" y="4056">0 - </tspan><tspan class="cls-8" x="209.98" y="4056">39</tspan><tspan x="231.46" y="4056">19</tspan><tspan x="0" y="4080"> 이메일 : conta</tspan><tspan class="cls-12" x="140.74" y="4080">c</tspan><tspan x="149.78" y="4080">t.swe</tspan><tspan class="cls-13" x="194.08" y="4080">r</tspan><tspan x="201.08" y="4080">ve.kr</tspan><tspan x="0" y="4152">10. 개인정보 열람청구</tspan><tspan x="0" y="4176"> </tspan><tspan x="0" y="4200"> 고객은 개인정보 보호법 제35조에 따라 개인정보의 항목 및 내용, 개인정보의 수집 및 이용의 목적, 개인정보 보유 및 </tspan><tspan x="0" y="4224">이용기간, 개인정보의 제3자 제공 현황, 개인정보 처리에 동의한 사실 및 내용 중 열람하려는 사항을 표시한 개인정보 </tspan><tspan x="0" y="4248">열람요구서를</tspan><tspan x="0" y="4272"> 작성하셔서 전항의 개인정보 보호책임자에 제출하여 개인정보를 열람청구할 수 있으며, 회사는 정보주체의 개인정보 </tspan><tspan x="0" y="4296">열람청구가 10일 이내에 처리될 수 있도록 노력하겠습니다. 다만 10일 이내에 열람시켜 드릴 수 없는 정당한 사유가 </tspan><tspan x="0" y="4320">발생하면 고객에게</tspan><tspan x="0" y="4344"> 그 사유를 알리고 열람을 연기할 수 있으며, 그 사유가 소멸하면 지체 없이 열람시켜 드리겠습니다.</tspan><tspan x="0" y="4368"> </tspan><tspan x="0" y="4416">11. 개인정보 처리방침 변경</tspan><tspan x="0" y="4464"> ① 회사의 개인정보 처리방침은 대한민국의 법률 개정과 회사의 내부 정책 변동에 따라 변경될 수 있습니다.</tspan><tspan x="0" y="4488"> ② 회사가 개인정보 처리방침을 개정하는 경우, 회사는 변경사항을 회사 웹사이트의 초기화면에 그 적용일자 7일 이전부터 </tspan><tspan x="0" y="4512">적용일자 전일까지 공지합니다.</tspan><tspan x="0" y="4560">[부칙] (</tspan><tspan class="cls-14" x="59.74" y="4560">2</tspan><tspan class="cls-15" x="70.3" y="4560">0</tspan><tspan x="82.66" y="4560">21년 </tspan><tspan class="cls-16" x="123.22" y="4560">0</tspan><tspan x="135.58" y="4560">2월 05일)</tspan><tspan x="0" y="4584">1. 이 약관은 </tspan><tspan class="cls-14" x="97.2" y="4584">2</tspan><tspan class="cls-15" x="107.76" y="4584">0</tspan><tspan x="120.12" y="4584">21년 </tspan><tspan class="cls-16" x="160.68" y="4584">0</tspan><tspan x="173.04" y="4584">2월 05일부터 적용됩니다.</tspan></tspan><tspan class="cls-4"><tspan x="0" y="4608"></tspan></tspan></text><path d="M338.87 4731.83v55.11h21.93v-55.11h22.45v-19.51h-67.23v19.51h22.85zM442.32 4739.56h-24.16v-27.24h-21.92v74.62h21.92v-27.24h24.16v27.24h21.93v-74.62h-21.93v27.24zM363.25 4833.17l14.75-13.72a38.45 38.45 0 1010.32 26.21h-20.16a18.32 18.32 0 11-4.91-12.49zM442.32 4834.43h-24.16v-27.24h-21.92v74.62h21.92v-27.24h24.16v27.24h21.93v-74.62h-21.93v27.24zM692.17 4852.06l-16.48-45.28h-24.94v74.63h21.93v-32.51l11.83 32.51h15.33l11.83-32.51v32.51h21.92v-74.63l-24.89-.13-16.53 45.41zM542.68 4818.46a38.44 38.44 0 108.57 13 38.26 38.26 0 00-8.57-13zm-14.24 40.16a18.35 18.35 0 115.36-13 18.32 18.32 0 01-5.36 13zM638.12 4831.5a38.35 38.35 0 102.71 14.16 38.38 38.38 0 00-2.71-14.16zm-22.81 27.12a18.32 18.32 0 115.37-13 18.31 18.31 0 01-5.37 13zM316.02 4910.88h417.57v20.94H316.02zM496.17 4712.32h-21.92v74.62h21.92"/><path d="M474.25 4768.8v18.14h55.63v-18.14h-33.71v-10.1h24.78v-18.14h-24.78v-10.1h33.71v-18.14h-55.63v18.14"/><path fill="none" d="M0 0h1080v4979.53H0z"/></g></g></svg>