<svg xmlns="http://www.w3.org/2000/svg" viewBox="0 0 547.91 285"  fill="#ff2dff" xmlns:v="https://vecta.io/nano"><path d="M35.91 26v72h28V26h29V1h-87v25h30zm134 10h-32V1h-28v96h28V62h32v35h28V1h-28v35zM67.32 157.8L86.45 140a49.89 49.89 0 1 0 13.39 34H73.69a23.78 23.78 0 1 1-6.37-16.2zm102.59 1.2h-32v-35h-28v96h28v-35h32v35h28v-96h-28v35zm325.1 22.86L473.96 123h-33.05v97h28v-42.26L484.02 220h20.78l15.11-42.26V220h28v-97l-31.79-.17-21.11 59.03zm-194.88-43.55a49.85 49.85 0 1 0 11.12 16.92 49.91 49.91 0 0 0-11.12-16.92zm-18.48 52.11a23.78 23.78 0 1 1 7-16.81 23.74 23.74 0 0 1-7 16.81zM424 155.23a50 50 0 1 0 3.5 18.38 49.88 49.88 0 0 0-3.5-18.38zm-29.6 35.19a23.78 23.78 0 1 1 7-16.81 23.73 23.73 0 0 1-7.04 16.81zM5.91 258h542v27h-542zm233-257h-28v97h28"/><path d="M211.91 74v24h72V74h-44V61h32V37h-32V24h44V0h-72v24"/></svg>