<svg xmlns="http://www.w3.org/2000/svg" viewBox="0 0 48 48"  fill="#444" xmlns:v="https://vecta.io/nano"><path d="M44.61 43.67h1.54V26.6a2.51 2.51 0 0 0-.06-.55 2.82 2.82 0 0 0-1.48-1.93v-2.13a19.51 19.51 0 0 0-.23-2 20.88 20.88 0 0 0-1.07-4A20.62 20.62 0 0 0 4.73 16a20.16 20.16 0 0 0-1.07 4 19.51 19.51 0 0 0-.23 2l-.05 2.13A2.81 2.81 0 0 0 2 25.87 3.61 3.61 0 0 0 1.84 27v15.17h6.34V23.2a15 15 0 0 1 .2-2.41A15.81 15.81 0 0 1 39.22 19a15.54 15.54 0 0 1 .59 4.12v17.22H24.52a2.4 2.4 0 0 0-.66 4.66 2.73 2.73 0 0 0 1.23.18H43v-1.5M10.53 23.32q10.85 0 14.31-7.41.09 4.07-4.34 6.8c10.41 2.05 14.64-1.24 16-4.49a13.47 13.47 0 0 0-25.94 5.1z"/><path d="M20.37 28.85a2.4 2.4 0 1 0-2.4 2.4 2.39 2.39 0 0 0 2.4-2.4zm7.25 0a2.4 2.4 0 1 1 2.4 2.4 2.4 2.4 0 0 1-2.4-2.4z"/></svg>