<svg xmlns="http://www.w3.org/2000/svg" viewBox="0 0 48 47.99"  fill="#444" xmlns:v="https://vecta.io/nano"><path d="M33.75 47h4.59A8.92 8.92 0 0 0 47 38.07v-4.32h-4.6v4.32a4.33 4.33 0 0 1-4.33 4.33h-4.32zM14.24 1H9.83a8.78 8.78 0 0 0-1.25.1 9 9 0 0 0-5 2.51 8.87 8.87 0 0 0-2.51 5 10.92 10.92 0 0 0-.1 1v4.66H5.6V9.92A4.31 4.31 0 0 1 9.92 5.6h4.32zM47 14.24V9.56a8.28 8.28 0 0 0-.09-1 8.93 8.93 0 0 0-7.5-7.46 7.3 7.3 0 0 0-.94-.1h-4.72v4.6h4.32a4.32 4.32 0 0 1 4.33 4.32v4.32zM31.07 25.57a1.53 1.53 0 0 0 1-1.76 1.51 1.51 0 0 0-.58-.92l-.23-.14-.25-.1-.51-.19-4.15-1.45q-4.18-1.44-8.35-2.74a1.54 1.54 0 0 0-1.68.42 1.49 1.49 0 0 0-.37.84 3.38 3.38 0 0 0 0 .45v8.29a3.57 3.57 0 0 0 0 .46 1.43 1.43 0 0 0 .37.83A1.53 1.53 0 0 0 18 30c4.38-1.39 8.74-2.85 13.07-4.43zM1 33.75v4.32A8.93 8.93 0 0 0 9.92 47h4.32v-4.6H9.92a4.32 4.32 0 0 1-4.32-4.33v-4.32z"/></svg>