<svg xmlns="http://www.w3.org/2000/svg" viewBox="0 0 48 48"  fill="#444" xmlns:v="https://vecta.io/nano"><path d="M31.64 31.82h5.4a2.36 2.36 0 0 0 1.59-.82 2.26 2.26 0 0 0 .45-.8 2.52 2.52 0 0 0 .12-.86v-25A2.38 2.38 0 0 0 37.06 2a7.48 7.48 0 0 0-.82 0H3.62a2.17 2.17 0 0 0-.86.27 2.37 2.37 0 0 0-1.17 1.42 2.67 2.67 0 0 0-.09.69v24.49a7.85 7.85 0 0 0 0 .84 2.39 2.39 0 0 0 2.37 2.11h1.59q-.84 2.81-1.69 5.61a2.08 2.08 0 0 0-.14.7 1.66 1.66 0 0 0 .16.73 1.74 1.74 0 0 0 1.06.93 1.72 1.72 0 0 0 1.43-.19l.58-.42.59-.43 9.44-6.93zm-20.72-1.54l1-3.24H6.28V6.74h28.14V27H15.33zm30.67-19.94v22.21a2.22 2.22 0 0 1-2.22 2.22H16.91l-6.7 4.91h20.35l8.2 6a1.73 1.73 0 0 0 2.68-1.89l-1.26-4.17a7.13 7.13 0 0 0 6.32-7.09V15z"/></svg>