<svg xmlns="http://www.w3.org/2000/svg" viewBox="0 0 50 50"  fill-rule="evenodd" xmlns:v="https://vecta.io/nano"><path d="M46.67,25.51a26.43,26.43,0,0,0-.41-4.61H25v8.73H37.15a10.41,10.41,0,0,1-4.5,6.81V42.1h7.29c4.27-3.93,6.73-9.71,6.73-16.59Z" fill="#4285f4"/><path d="M25,47.57A21.56,21.56,0,0,0,39.94,42.1l-7.3-5.67a13.62,13.62,0,0,1-20.27-7.15H4.83v5.85A22.57,22.57,0,0,0,25,47.57Z" fill="#34a853"/><path d="M12.37,29.29a13.41,13.41,0,0,1,0-8.58V14.86H4.83a22.62,22.62,0,0,0,0,20.28l7.54-5.85Z" fill="#fbbc05"/><path d="M25,11.41a12.19,12.19,0,0,1,8.63,3.37L40.1,8.31A21.7,21.7,0,0,0,25,2.43,22.58,22.58,0,0,0,4.83,14.86l7.54,5.85A13.45,13.45,0,0,1,25,11.41Z" fill="#ea4335"/></svg>