<svg xmlns="http://www.w3.org/2000/svg" viewBox="0 0 60 60"  fill="#444" xmlns:v="https://vecta.io/nano"><path d="M38.92 31.16a2 2 0 0 0 .5-3.38 2.29 2.29 0 0 0-.29-.18 2 2 0 0 0-.31-.12l-.65-.24q-2.61-.94-5.23-1.84-5.23-1.8-10.53-3.4a1.94 1.94 0 0 0-2.59 1.59 5.42 5.42 0 0 0 0 .57v10.4a5.66 5.66 0 0 0 0 .58 2 2 0 0 0 .47 1 2 2 0 0 0 2.12.54C28 35 33.46 33.15 38.92 31.16zm19.3-23.03A11.26 11.26 0 0 0 47.75 1h-35.5A11.26 11.26 0 0 0 1.78 8.13 11.13 11.13 0 0 0 1 12.32v35.43A11.27 11.27 0 0 0 12.25 59h35.8A11.22 11.22 0 0 0 59 47.75V12.32a11.16 11.16 0 0 0-.78-4.19zm-5 39.62a5.45 5.45 0 0 1-5.45 5.45H12.25a5.45 5.45 0 0 1-5.45-5.45v-35.5a5.45 5.45 0 0 1 5.45-5.45h35.5a5.45 5.45 0 0 1 5.45 5.45z"/></svg>