<svg xmlns="http://www.w3.org/2000/svg" viewBox="0 0 48 48"  xmlns:v="https://vecta.io/nano"><path d="M47 14.11a9.3 9.3 0 0 0-.27-1.82 9 9 0 0 0-8.65-6.69V1h-4.6v4.6h-19V1H9.92v4.6a9 9 0 0 0-8.64 6.69A9.3 9.3 0 0 0 1 14.11v24.25a8.94 8.94 0 0 0 6.62 8.34 9.41 9.41 0 0 0 1.84.3H38a9.1 9.1 0 0 0 2.43-.31A8.9 8.9 0 0 0 47 38.36V14.11zm-4.59 15v9.3a4.43 4.43 0 0 1-2.68 3.67 4.46 4.46 0 0 1-1 .26 2.5 2.5 0 0 1-.47 0H9.71a2.5 2.5 0 0 1-.47 0 4.46 4.46 0 0 1-1-.26A4.33 4.33 0 0 1 5.71 39a4.09 4.09 0 0 1-.1-.61v-19.3H42.4zM5.6 14.52a4.33 4.33 0 0 1 2.78-4 4.47 4.47 0 0 1 .87-.23 3 3 0 0 1 .43 0 5.61 5.61 0 0 1 .58 0h27.48a5.61 5.61 0 0 1 .58 0 3.13 3.13 0 0 1 .43 0 4.37 4.37 0 0 1 .86.23 4.33 4.33 0 0 1 2.79 4z" fill="#444"/></svg>