<svg xmlns="http://www.w3.org/2000/svg" viewBox="0 0 48 48"  fill="#444" xmlns:v="https://vecta.io/nano"><path d="M18.64 23.73l2.67 3.73 9.78-10.74a2.301 2.301 0 1 1 3.4 3.1l-11.7 12.84a2.29 2.29 0 0 1-3.57-.21L14.9 26.4a2.3 2.3 0 0 1 3.74-2.67zM1 33.75v4.34A8.93 8.93 0 0 0 9.92 47h4.32v-4.6H9.92a4.32 4.32 0 0 1-4.32-4.32v-4.33zM33.75 47h4.59A8.92 8.92 0 0 0 47 38.08h0v-4.33h-4.6v4.33a4.33 4.33 0 0 1-4.32 4.32h-4.33zM14.24 1H9.83a10.2 10.2 0 0 0-1.24.1 9 9 0 0 0-5 2.51 8.91 8.91 0 0 0-2.51 5 8.28 8.28 0 0 0-.09 1v4.68H5.6V9.92A4.32 4.32 0 0 1 9.92 5.6h4.32zM47 14.25V9.57a8.28 8.28 0 0 0-.09-1 8.93 8.93 0 0 0-7.5-7.47 7.3 7.3 0 0 0-.94-.1h-4.72v4.6h4.33a4.33 4.33 0 0 1 4.32 4.32v4.33z"/></svg>