<svg xmlns="http://www.w3.org/2000/svg" viewBox="0 0 75 75"  xmlns:v="https://vecta.io/nano"><path d="M7.48 31.5l6.84 2.22a23.33 23.33 0 0 0 0 7.55L7.48 43.5a3.57 3.57 0 1 0 2.21 6.79l6.84-2.22A23.62 23.62 0 0 0 21 54.18L16.74 60a3.57 3.57 0 0 0 5.78 4.19l4.22-5.82a23.69 23.69 0 0 0 7.19 2.34v7.19a3.57 3.57 0 1 0 7.14 0v-7.19a23.63 23.63 0 0 0 7.18-2.34l4.23 5.82A3.57 3.57 0 0 0 58.26 60L54 54.18a23.62 23.62 0 0 0 4.44-6.11l6.84 2.22a3.57 3.57 0 0 0 2.21-6.79l-6.85-2.23a23.33 23.33 0 0 0 0-7.55l6.85-2.22a3.57 3.57 0 1 0-2.21-6.79l-6.84 2.22A23.45 23.45 0 0 0 54 20.82L58.26 15a3.57 3.57 0 1 0-5.78-4.2l-4.23 5.82a23.34 23.34 0 0 0-7.18-2.33V7.1a3.57 3.57 0 1 0-7.14 0v7.19a23.4 23.4 0 0 0-7.19 2.33l-4.22-5.82a3.57 3.57 0 1 0-5.78 4.2L21 20.82a23.45 23.45 0 0 0-4.44 6.11l-6.87-2.22a3.57 3.57 0 1 0-2.21 6.79zm21.85 20.28l4.1-5.64a9.58 9.58 0 0 0 8.14 0l4.1 5.64a16.48 16.48 0 0 1-16.34 0zm19.22-26.46a16.44 16.44 0 0 1 0 24.36L44.45 44a9.54 9.54 0 0 0 0-13.08zm-2.88-2.1l-4.1 5.64a9.58 9.58 0 0 0-8.14 0l-4.1-5.64a16.43 16.43 0 0 1 16.34 0zm-19.23 2.1l4.1 5.68a9.56 9.56 0 0 0 0 13.08l-4.1 5.64a16.46 16.46 0 0 1 0-24.36z" fill="#444"/></svg>